<?xml version="1.0" standalone="no"?>
<!DOCTYPE svg PUBLIC "-//W3C//DTD SVG 20010904//EN"
 "http://www.w3.org/TR/2001/REC-SVG-20010904/DTD/svg10.dtd">
<svg version="1.0" xmlns="http://www.w3.org/2000/svg"
 width="264.000000pt" height="264.000000pt" viewBox="0 0 264.000000 264.000000"
 preserveAspectRatio="xMidYMid meet">
<metadata>
Created by potrace 1.14, written by Peter Selinger 2001-2017
</metadata>
<g transform="translate(0.000000,264.000000) scale(0.100000,-0.100000)"
fill="#000000" stroke="none">
<path d="M1740 1905 c0 -2 9 -19 20 -37 35 -58 36 -58 -145 -58 l-165 0 0
-110 0 -110 130 0 c87 0 130 -4 130 -11 0 -6 -51 -63 -114 -127 -63 -65 -124
-128 -136 -142 l-22 -25 153 -3 153 -3 104 105 105 104 95 -104 96 -104 158 0
c134 0 158 2 151 14 -4 8 -54 64 -110 124 l-103 110 -110 7 c-60 4 -110 10
-110 15 0 4 8 14 18 23 15 14 50 17 218 19 l199 3 0 105 0 105 -182 3 -182 2
-3 48 -3 47 -172 3 c-95 1 -173 0 -173 -3z"/>
<path d="M354 1860 c-197 -46 -250 -344 -87 -479 21 -17 54 -36 73 -41 19 -6
178 -10 355 -10 315 0 321 1 371 24 204 95 186 437 -27 500 -43 13 -107 16
-353 15 -166 -1 -315 -4 -332 -9z m580 -223 c26 -19 18 -68 -14 -84 -18 -9
-85 -13 -230 -13 -228 0 -253 6 -258 55 -6 52 8 55 258 55 170 0 231 -3 244
-13z"/>
<path d="M140 1158 l0 -113 86 4 c53 2 90 -1 97 -8 11 -11 13 -35 16 -184 l1
-98 128 3 127 3 3 137 c3 138 3 138 28 144 24 6 141 0 149 -7 3 -4 45 -257 45
-272 0 -4 59 -7 130 -7 97 0 130 3 130 13 0 6 -9 68 -20 136 -17 100 -18 126
-8 133 7 5 51 7 98 6 l85 -2 0 109 0 110 -547 3 -548 2 0 -112z"/>
<path d="M1400 1110 l0 -110 208 -2 207 -3 3 -117 3 -118 129 0 129 0 3 118 3
117 208 3 207 2 0 110 0 110 -550 0 -550 0 0 -110z"/>
</g>
</svg>
